<svg width="81" height="37" viewBox="0 0 81 37" fill="none" xmlns="http://www.w3.org/2000/svg">
<path d="M1.87602 7.81084H17.0797V11.7748H6.44213V15.9395H16.2016V19.9035H6.44213V24.294H17.3054V28.258H1.87602V7.81084Z" fill="#2D334A"/>
<path d="M20.5132 7.8108H35.7169V11.7748H25.0793V15.9395H34.8388V19.9035H25.0793V24.2939H35.9427V28.2579H20.5132V7.8108Z" fill="#2D334A"/>
<path d="M49.4583 28.7597C47.3676 28.7597 45.4776 28.2914 43.7883 27.3547C42.1157 26.4348 40.8027 25.1637 39.8494 23.5413C38.896 21.9022 38.4193 20.0624 38.4193 18.0218C38.4193 15.9813 38.896 14.1498 39.8494 12.5274C40.8027 10.8883 42.1157 9.60881 43.7883 8.6889C45.4776 7.75226 47.3676 7.28394 49.4583 7.28394C51.549 7.28394 53.4306 7.75226 55.1032 8.6889C56.7925 9.60881 58.1138 10.8883 59.0672 12.5274C60.0205 14.1498 60.4972 15.9813 60.4972 18.0218C60.4972 20.0624 60.0205 21.9022 59.0672 23.5413C58.1138 25.1637 56.7925 26.4348 55.1032 27.3547C53.4306 28.2914 51.549 28.7597 49.4583 28.7597ZM49.4583 24.6452C50.6792 24.6452 51.7831 24.3608 52.77 23.7922C53.7568 23.2235 54.5261 22.4374 55.0781 21.4339C55.6468 20.4136 55.9311 19.2762 55.9311 18.0218C55.9311 16.7507 55.6468 15.6133 55.0781 14.6098C54.5261 13.6062 53.7568 12.8201 52.77 12.2515C51.7831 11.6828 50.6792 11.3985 49.4583 11.3985C48.2373 11.3985 47.1334 11.6828 46.1466 12.2515C45.1598 12.8201 44.382 13.6062 43.8134 14.6098C43.2614 15.6133 42.9854 16.7507 42.9854 18.0218C42.9854 19.2762 43.2614 20.4136 43.8134 21.4339C44.382 22.4374 45.1598 23.2235 46.1466 23.7922C47.1334 24.3608 48.2373 24.6452 49.4583 24.6452Z" fill="#2D334A"/>
<path d="M71.6252 7.30903C73.1305 7.30903 74.4937 7.59337 75.7147 8.16204C76.9356 8.73071 77.9057 9.52518 78.6249 10.5454C79.3608 11.549 79.7623 12.6947 79.8292 13.9826H75.1125C74.9787 13.0794 74.5857 12.3769 73.9334 11.8751C73.2811 11.3734 72.4113 11.1225 71.3242 11.1225C70.2872 11.1225 69.476 11.3148 68.8906 11.6995C68.3052 12.0675 68.0125 12.5693 68.0125 13.2048C68.0125 13.7066 68.1965 14.1164 68.5644 14.4342C68.9324 14.752 69.4927 15.0363 70.2454 15.2872C71.0147 15.5213 72.127 15.7889 73.5821 16.09C75.8401 16.5583 77.4541 17.3361 78.4242 18.4232C79.411 19.4937 79.9044 20.8401 79.9044 22.4625C79.9044 23.7336 79.5365 24.8459 78.8005 25.7993C78.0813 26.7526 77.0945 27.4802 75.8401 27.982C74.5857 28.5004 73.1891 28.7597 71.6503 28.7597C69.9777 28.7597 68.4724 28.467 67.1344 27.8816C65.8131 27.3129 64.7593 26.4934 63.9732 25.4229C63.2039 24.3525 62.7857 23.0981 62.7188 21.6597H67.4104C67.5442 22.6465 68.0125 23.4409 68.8153 24.0431C69.6349 24.6285 70.6886 24.9212 71.9765 24.9212C72.9131 24.9212 73.6825 24.7121 74.2846 24.2939C74.9035 23.8758 75.2129 23.3322 75.2129 22.6632C75.2129 22.128 75.0456 21.6847 74.7111 21.3335C74.3933 20.9823 73.8748 20.6812 73.1556 20.4303C72.4531 20.1794 71.4663 19.9369 70.1952 19.7027C67.9038 19.2679 66.1894 18.5403 65.052 17.52C63.9147 16.4998 63.346 15.0614 63.346 13.2048C63.346 12.0006 63.7056 10.9552 64.4248 10.0688C65.1608 9.18231 66.1559 8.50492 67.4104 8.0366C68.6648 7.55155 70.0697 7.30903 71.6252 7.30903Z" fill="#2D334A"/>
</svg>
