<svg width="100" height="46" viewBox="0 0 100 46" fill="none" xmlns="http://www.w3.org/2000/svg">
<path d="M2.31608 9.97784H21.086V14.8716H7.95325V20.0132H20.0019V24.907H7.95325V30.3274H21.3648V35.2212H2.31608V9.97784Z" fill="#00B8B8"/>
<path d="M25.3249 9.97784H44.0948V14.8716H30.9621V20.0132H43.0107V24.907H30.9621V30.3274H44.3736V35.2212H25.3249V9.97784Z" fill="#00B8B8"/>
<path d="M61.0595 35.8407C58.4784 35.8407 56.1451 35.2625 54.0595 34.1062C51.9946 32.9705 50.3737 31.4011 49.1967 29.3982C48.0197 27.3746 47.4312 25.1032 47.4312 22.584C47.4312 20.0649 48.0197 17.8038 49.1967 15.8009C50.3737 13.7773 51.9946 12.1976 54.0595 11.0619C56.1451 9.90557 58.4784 9.3274 61.0595 9.3274C63.6406 9.3274 65.9637 9.90557 68.0286 11.0619C70.1141 12.1976 71.7454 13.7773 72.9224 15.8009C74.0994 17.8038 74.6878 20.0649 74.6878 22.584C74.6878 25.1032 74.0994 27.3746 72.9224 29.3982C71.7454 31.4011 70.1141 32.9705 68.0286 34.1062C65.9637 35.2625 63.6406 35.8407 61.0595 35.8407ZM61.0595 30.761C62.5669 30.761 63.9297 30.41 65.148 29.7079C66.3663 29.0059 67.3162 28.0354 67.9976 26.7964C68.6996 25.5368 69.0507 24.1327 69.0507 22.584C69.0507 21.0147 68.6996 19.6106 67.9976 18.3716C67.3162 17.1327 66.3663 16.1622 65.148 15.4601C63.9297 14.7581 62.5669 14.407 61.0595 14.407C59.5522 14.407 58.1893 14.7581 56.971 15.4601C55.7527 16.1622 54.7926 17.1327 54.0905 18.3716C53.4091 19.6106 53.0684 21.0147 53.0684 22.584C53.0684 24.1327 53.4091 25.5368 54.0905 26.7964C54.7926 28.0354 55.7527 29.0059 56.971 29.7079C58.1893 30.41 59.5522 30.761 61.0595 30.761Z" fill="#FFC737"/>
<path d="M88.4261 9.35837C90.2845 9.35837 91.9674 9.7094 93.4748 10.4115C94.9822 11.1135 96.1798 12.0944 97.0677 13.3539C97.9763 14.5929 98.4718 16.0073 98.5544 17.5973H92.7314C92.5662 16.4823 92.081 15.615 91.2757 14.9955C90.4704 14.3761 89.3966 14.0663 88.0544 14.0663C86.7742 14.0663 85.7727 14.3038 85.05 14.7787C84.3273 15.233 83.9659 15.8525 83.9659 16.6371C83.9659 17.2566 84.1931 17.7625 84.6474 18.1548C85.1016 18.5472 85.7934 18.8982 86.7226 19.2079C87.6724 19.497 89.0456 19.8274 90.842 20.1991C93.6297 20.7773 95.6223 21.7374 96.8199 23.0796C98.0382 24.4011 98.6474 26.0634 98.6474 28.0663C98.6474 29.6357 98.1931 31.0088 97.2845 32.1858C96.3966 33.3628 95.1783 34.261 93.6297 34.8805C92.081 35.5206 90.3568 35.8407 88.4571 35.8407C86.3922 35.8407 84.5338 35.4793 82.8819 34.7566C81.2506 34.0545 79.9497 33.0427 78.9792 31.7212C78.0294 30.3997 77.5131 28.851 77.4305 27.0752H83.2226C83.3878 28.2935 83.9659 29.2743 84.9571 30.0177C85.9689 30.7404 87.2698 31.1017 88.8597 31.1017C90.0161 31.1017 90.9659 30.8436 91.7093 30.3274C92.4733 29.8112 92.8553 29.1401 92.8553 28.3141C92.8553 27.6534 92.6488 27.1062 92.2359 26.6725C91.8435 26.2389 91.2034 25.8672 90.3155 25.5575C89.4482 25.2478 88.23 24.9483 86.6606 24.6593C83.8317 24.1224 81.7152 23.2242 80.3111 21.9646C78.9069 20.705 78.2049 18.9292 78.2049 16.6371C78.2049 15.1504 78.6488 13.8598 79.5367 12.7655C80.4453 11.6711 81.6739 10.8348 83.2226 10.2566C84.7712 9.65778 86.5058 9.35837 88.4261 9.35837Z" fill="#00B8B8"/>
</svg>
