<svg width="271" height="212" viewBox="0 0 271 212" fill="none" xmlns="http://www.w3.org/2000/svg">
<path d="M22.9726 113.3C46.3413 82.2337 80.4353 95.0726 72.6587 75.7189C64.8821 56.3652 102.337 72.2278 110.818 82.7849C117.539 91.1516 126.679 105.758 126.679 105.758C126.679 105.758 140.72 130.075 134.231 164.227C127.741 198.379 83.9276 198.064 55.6102 183.923C28.4283 170.349 -0.396041 144.366 22.9726 113.3Z" fill="#272343" stroke="#272343" stroke-width="8.38859"/>
<path d="M59.6067 100.269C57.8649 100.107 56.152 99.8422 54.4679 99.4737C52.8012 99.1262 51.2905 98.658 49.9358 98.0691C48.5811 97.4802 47.519 96.7544 46.7495 95.8915C45.9992 95.0305 45.6781 94.0161 45.7863 92.8485C45.8963 91.6618 46.2495 90.7679 46.8457 90.1667C47.4438 89.5465 48.2041 89.1536 49.1268 88.9881C50.0513 88.8035 51.0399 88.76 52.0927 88.8576C52.3415 88.8807 52.6999 88.9718 53.1677 89.131C53.6548 89.292 54.2079 89.4687 54.8271 89.6612C55.4464 89.8538 56.1005 89.982 56.7896 90.0458C57.7849 90.1381 58.669 90.1814 59.4417 90.1758C60.2145 90.1702 60.8777 90.0965 61.4314 89.9548C61.9868 89.7939 62.4163 89.5345 62.7197 89.1765C63.0423 88.8203 63.2311 88.3455 63.2861 87.7521C63.3322 87.2544 63.2199 86.8 62.9491 86.3888C62.6975 85.9794 62.3188 85.5871 61.813 85.212C61.309 84.8178 60.7066 84.4435 60.0058 84.0889C59.3242 83.7362 58.5678 83.3572 57.7366 82.952C56.4776 82.3719 55.2927 81.7216 54.1819 81.0008C53.0902 80.2819 52.1404 79.4892 51.3327 78.6228C50.5249 77.7564 49.9088 76.8016 49.4842 75.7584C49.0806 74.6978 48.9355 73.555 49.049 72.33C49.191 70.7987 49.6893 69.4838 50.544 68.3854C51.4178 67.2887 52.5341 66.3883 53.8929 65.6841C55.2516 64.9799 56.758 64.4535 58.4119 64.1048C60.0677 63.737 61.758 63.5172 63.4828 63.4454C65.2077 63.3736 66.8549 63.4104 68.4244 63.5559C69.8983 63.6925 71.2972 63.909 72.6211 64.2055C73.9641 64.5037 75.1626 64.9043 76.2164 65.4074C77.2719 65.8914 78.0863 66.4784 78.6594 67.1686C79.2343 67.8397 79.48 68.625 79.3966 69.5247C79.3008 70.5583 78.9739 71.3774 78.416 71.9821C77.8789 72.5694 77.2038 72.9798 76.3906 73.2133C75.5774 73.4469 74.7306 73.5228 73.8501 73.4412C73.4482 73.404 73.0428 73.2988 72.6342 73.1258C72.2255 72.9528 71.7594 72.7745 71.2358 72.5908C70.7314 72.4089 70.0868 72.2816 69.3021 72.2089C68.7661 72.1592 68.2362 72.1487 67.7123 72.1774C67.2075 72.2078 66.7462 72.2905 66.3282 72.4256C65.9103 72.5606 65.5619 72.7792 65.2829 73.0816C65.0248 73.3666 64.8736 73.7483 64.8292 74.2268C64.7813 74.7436 64.891 75.2268 65.1582 75.6763C65.4254 76.1258 65.8111 76.5476 66.3151 76.9418C66.8191 77.336 67.4197 77.7295 68.1169 78.1224C68.835 78.4978 69.6184 78.8986 70.4669 79.3247C71.6302 79.8959 72.7742 80.5714 73.8989 81.3513C75.0427 82.133 76.061 83.0189 76.9538 84.009C77.8484 84.98 78.5296 86.0663 78.9974 87.268C79.4843 88.4715 79.6622 89.7814 79.5309 91.1979C79.3517 93.1311 78.6814 94.7389 77.5201 96.0213C76.3588 97.3036 74.8481 98.293 72.9882 98.9894C71.1282 99.6857 69.0503 100.13 66.7544 100.323C64.4585 100.516 62.0759 100.497 59.6067 100.269Z" fill="#BAE8E8"/>
<path d="M37.8442 135.037C36.2177 134.233 34.8962 133.21 33.8799 131.97C32.8636 130.729 32.2349 129.278 31.9939 127.614C31.7735 125.944 32.0198 124.058 32.7329 121.958C32.8892 121.503 33.0557 121.045 33.2325 120.583C33.43 120.115 33.6342 119.633 33.8453 119.137C34.0769 118.633 34.3086 118.13 34.5403 117.627C34.7788 117.111 35.0344 116.576 35.3071 116.025C36.548 113.516 37.8498 111.578 39.2126 110.21C40.5959 108.836 42.057 107.946 43.5958 107.54C45.1552 107.128 46.8299 107.124 48.6198 107.529C50.4165 107.92 52.3487 108.627 54.4164 109.65C55.464 110.168 56.4292 110.714 57.312 111.288C58.2016 111.848 58.94 112.419 59.5271 113.001C60.1279 113.59 60.5328 114.176 60.7416 114.76C60.9573 115.33 60.9288 115.891 60.656 116.442C60.3356 117.09 59.8973 117.525 59.3412 117.748C58.7919 117.956 58.2109 118.003 57.5983 117.889C57.1095 117.767 56.5137 117.567 55.811 117.288C55.1289 117.002 54.4158 116.692 53.6715 116.359C52.9342 116.011 52.245 115.687 51.6041 115.387C50.9081 115.06 50.3053 114.839 49.7959 114.725C49.3003 114.617 48.8635 114.615 48.4857 114.72C48.1147 114.811 47.782 115.015 47.4877 115.333C47.1933 115.651 46.92 116.064 46.6677 116.574C46.5041 116.905 46.416 117.205 46.4034 117.473C46.4045 117.748 46.5398 118.012 46.8091 118.266C47.0784 118.519 47.5301 118.803 48.1642 119.116C48.4812 119.273 48.8052 119.433 49.136 119.597C49.4736 119.747 49.8113 119.897 50.1489 120.046C50.5072 120.189 50.8482 120.332 51.1721 120.475C51.5097 120.625 51.8233 120.772 52.1128 120.915C53.119 121.413 53.7509 122.008 54.0084 122.702C54.2726 123.381 54.207 124.121 53.8116 124.921C53.2116 126.134 52.4717 126.814 51.592 126.962C50.7261 127.117 49.8383 126.97 48.9285 126.52C48.5839 126.349 48.2393 126.179 47.8947 126.009C47.5501 125.838 47.2124 125.671 46.8816 125.507C46.5575 125.33 46.2439 125.166 45.9407 125.016C45.6374 124.866 45.3686 124.733 45.1343 124.617C44.4313 124.27 43.8732 124.045 43.4601 123.944C43.047 123.842 42.7238 123.854 42.4905 123.979C42.2779 124.097 42.0897 124.321 41.926 124.652C41.7147 125.079 41.5548 125.489 41.4465 125.882C41.3449 126.26 41.3155 126.615 41.3582 126.945C41.4009 127.275 41.5158 127.597 41.7028 127.913C41.9105 128.221 42.2006 128.519 42.5732 128.807C42.9596 129.101 43.4561 129.398 44.0626 129.698C44.6967 130.011 45.348 130.325 46.0164 130.638C46.6917 130.938 47.3223 131.224 47.908 131.497C48.5006 131.756 48.983 131.977 49.3552 132.161C50.2787 132.618 50.8554 133.186 51.0853 133.866C51.3152 134.546 51.2222 135.306 50.8063 136.147C50.3699 137.029 49.6674 137.583 48.6986 137.807C47.7436 138.038 46.6398 138.032 45.387 137.79C44.148 137.555 42.8672 137.179 41.5445 136.662C40.2218 136.145 38.9884 135.603 37.8442 135.037Z" fill="#BAE8E8"/>
<path d="M98.9057 162.987C97.2792 162.183 95.9577 161.16 94.9414 159.92C93.925 158.679 93.2964 157.227 93.0554 155.564C92.835 153.894 93.0813 152.008 93.7944 149.907C93.9506 149.453 94.1172 148.995 94.294 148.533C94.4914 148.065 94.6957 147.582 94.9067 147.086C95.1384 146.583 95.3701 146.08 95.6018 145.577C95.8402 145.06 96.0959 144.526 96.3686 143.975C97.6095 141.466 98.9113 139.528 100.274 138.16C101.657 136.786 103.118 135.896 104.657 135.49C106.217 135.078 107.891 135.074 109.681 135.479C111.478 135.87 113.41 136.577 115.478 137.6C116.525 138.118 117.491 138.664 118.373 139.238C119.263 139.798 120.001 140.369 120.589 140.951C121.189 141.54 121.594 142.126 121.803 142.71C122.019 143.28 121.99 143.84 121.718 144.392C121.397 145.04 120.959 145.475 120.403 145.697C119.853 145.906 119.272 145.953 118.66 145.839C118.171 145.717 117.575 145.517 116.873 145.238C116.19 144.952 115.477 144.642 114.733 144.308C113.996 143.961 113.306 143.637 112.666 143.337C111.97 143.01 111.367 142.789 110.857 142.674C110.362 142.566 109.925 142.565 109.547 142.67C109.176 142.761 108.844 142.965 108.549 143.283C108.255 143.6 107.981 144.014 107.729 144.524C107.566 144.855 107.477 145.155 107.465 145.423C107.466 145.698 107.601 145.962 107.871 146.215C108.14 146.469 108.592 146.752 109.226 147.066C109.543 147.223 109.867 147.383 110.197 147.547C110.535 147.696 110.873 147.846 111.21 147.996C111.569 148.139 111.91 148.282 112.234 148.425C112.571 148.575 112.885 148.721 113.174 148.865C114.181 149.362 114.812 149.958 115.07 150.651C115.334 151.331 115.269 152.071 114.873 152.87C114.273 154.083 113.533 154.764 112.654 154.912C111.788 155.067 110.9 154.92 109.99 154.47C109.645 154.299 109.301 154.129 108.956 153.958C108.612 153.788 108.274 153.621 107.943 153.457C107.619 153.28 107.305 153.116 107.002 152.966C106.699 152.816 106.43 152.683 106.196 152.567C105.493 152.219 104.935 151.995 104.522 151.893C104.109 151.792 103.785 151.804 103.552 151.929C103.339 152.046 103.151 152.271 102.988 152.602C102.776 153.029 102.616 153.439 102.508 153.831C102.406 154.21 102.377 154.564 102.42 154.894C102.462 155.224 102.577 155.547 102.764 155.863C102.972 156.171 103.262 156.469 103.635 156.756C104.021 157.05 104.518 157.347 105.124 157.647C105.758 157.961 106.409 158.275 107.078 158.588C107.753 158.888 108.384 159.174 108.97 159.447C109.562 159.705 110.044 159.927 110.417 160.111C111.34 160.568 111.917 161.136 112.147 161.816C112.377 162.496 112.284 163.256 111.868 164.097C111.431 164.979 110.729 165.532 109.76 165.757C108.805 165.988 107.701 165.982 106.448 165.74C105.21 165.505 103.929 165.128 102.606 164.611C101.283 164.094 100.05 163.553 98.9057 162.987Z" fill="#BAE8E8"/>
<path d="M59.1277 166.91C57.1141 165.988 55.3754 164.854 53.9115 163.508C52.4475 162.161 51.3258 160.658 50.5462 158.999C49.7729 157.326 49.385 155.55 49.3823 153.671C49.3936 151.799 49.8537 149.87 50.7626 147.885C51.6459 145.955 52.7294 144.345 54.0132 143.056C55.3174 141.758 56.7627 140.762 58.3491 140.068C59.9355 139.373 61.6032 138.944 63.3524 138.781C65.1156 138.624 66.9048 138.724 68.72 139.082C70.5417 139.425 72.3265 139.997 74.0744 140.797C76.2138 141.776 78.079 142.985 79.6699 144.424C81.2748 145.869 82.5312 147.484 83.439 149.269C84.3533 151.041 84.8441 152.906 84.9114 154.865C84.9928 156.83 84.5726 158.82 83.6509 160.833C82.6332 163.057 81.2355 164.835 79.4578 166.17C77.6865 167.49 75.67 168.385 73.4084 168.855C71.1671 169.317 68.8226 169.377 66.3748 169.035C63.9205 168.707 61.5048 167.998 59.1277 166.91ZM65.279 158.183C66.8031 158.88 68.1317 159.192 69.2646 159.119C70.4179 159.038 71.3868 158.695 72.1711 158.09C72.9554 157.485 73.546 156.749 73.9429 155.882C74.3205 155.057 74.5161 154.242 74.5297 153.436C74.5497 152.617 74.4098 151.851 74.11 151.138C73.8167 150.412 73.3812 149.756 72.8037 149.171C72.2401 148.591 71.5598 148.119 70.7628 147.754C70.0077 147.409 69.2261 147.195 68.4182 147.112C67.6166 147.016 66.8439 147.06 66.1002 147.244C65.3628 147.414 64.6925 147.733 64.0893 148.201C63.4924 148.655 63.0244 149.252 62.6851 149.993C62.3139 150.804 62.0941 151.617 62.0258 152.431C61.9714 153.252 62.0534 154.034 62.2716 154.776C62.5102 155.511 62.8807 156.18 63.3831 156.782C63.8919 157.37 64.5239 157.837 65.279 158.183Z" fill="#BAE8E8"/>
<path d="M161.372 171.482C157.769 139.755 185.356 128.161 169.788 121.008C154.221 113.854 185.52 102.166 196.54 103.674C205.274 104.87 218.974 108.421 218.974 108.421C218.974 108.421 241.082 114.997 256.496 139.033C271.91 163.07 245.598 187.623 220.721 195.179C196.842 202.431 164.976 203.209 161.372 171.482Z" fill="#272343" stroke="#272343" stroke-width="6.89036"/>
<path d="M175.955 143.135C174.825 144.022 173.653 144.832 172.441 145.563C171.25 146.297 170.085 146.87 168.944 147.284C167.804 147.698 166.76 147.865 165.814 147.784C164.88 147.695 164.116 147.271 163.521 146.513C162.916 145.743 162.622 145.011 162.639 144.315C162.645 143.608 162.877 142.944 163.334 142.324C163.781 141.692 164.346 141.108 165.029 140.571C165.191 140.445 165.456 140.297 165.825 140.127C166.206 139.948 166.636 139.742 167.114 139.507C167.592 139.272 168.055 138.979 168.502 138.628C169.148 138.121 169.699 137.648 170.157 137.208C170.615 136.768 170.969 136.35 171.219 135.952C171.46 135.543 171.569 135.146 171.548 134.761C171.539 134.366 171.384 133.976 171.082 133.591C170.828 133.268 170.505 133.061 170.111 132.968C169.73 132.866 169.282 132.846 168.769 132.908C168.245 132.957 167.675 133.074 167.056 133.258C166.451 133.433 165.785 133.634 165.061 133.862C163.982 134.227 162.908 134.508 161.839 134.705C160.781 134.893 159.767 134.956 158.796 134.896C157.825 134.835 156.918 134.613 156.076 134.231C155.236 133.826 154.505 133.226 153.88 132.431C153.1 131.438 152.655 130.372 152.545 129.234C152.447 128.087 152.604 126.919 153.017 125.732C153.43 124.545 154.031 123.38 154.821 122.238C155.601 121.084 156.485 119.998 157.473 118.981C158.461 117.964 159.465 117.056 160.483 116.257C161.44 115.506 162.396 114.845 163.353 114.274C164.323 113.694 165.264 113.256 166.177 112.961C167.08 112.654 167.897 112.544 168.628 112.632C169.35 112.708 169.94 113.037 170.399 113.621C170.925 114.292 171.193 114.965 171.201 115.641C171.213 116.294 171.042 116.92 170.689 117.519C170.335 118.117 169.873 118.641 169.302 119.089C169.041 119.294 168.74 119.46 168.398 119.588C168.057 119.715 167.678 119.872 167.262 120.058C166.859 120.235 166.402 120.523 165.893 120.922C165.545 121.195 165.223 121.488 164.927 121.801C164.643 122.105 164.415 122.414 164.241 122.731C164.068 123.048 163.984 123.375 163.988 123.713C163.995 124.028 164.121 124.341 164.364 124.652C164.628 124.987 164.966 125.214 165.379 125.331C165.792 125.448 166.261 125.482 166.784 125.432C167.307 125.383 167.888 125.278 168.525 125.119C169.166 124.938 169.859 124.734 170.606 124.509C171.623 124.193 172.686 123.95 173.798 123.78C174.921 123.601 176.029 123.554 177.121 123.64C178.203 123.714 179.222 123.978 180.18 124.43C181.15 124.873 181.996 125.554 182.717 126.473C183.702 127.728 184.21 129.065 184.242 130.486C184.273 131.907 183.931 133.35 183.215 134.815C182.498 136.281 181.51 137.72 180.249 139.131C178.988 140.542 177.557 141.877 175.955 143.135Z" fill="#BAE8E8"/>
<path d="M182.455 175.846C181.031 176.285 179.665 176.421 178.358 176.255C177.052 176.089 175.857 175.578 174.774 174.722C173.699 173.85 172.781 172.586 172.02 170.93C171.857 170.571 171.698 170.204 171.542 169.828C171.396 169.437 171.245 169.034 171.091 168.619C170.945 168.188 170.799 167.758 170.653 167.327C170.504 166.884 170.354 166.421 170.206 165.938C169.529 163.741 169.211 161.849 169.252 160.264C169.301 158.663 169.67 157.307 170.359 156.196C171.056 155.069 172.053 154.122 173.349 153.352C174.642 152.571 176.193 151.902 178.004 151.344C178.922 151.062 179.806 150.842 180.657 150.686C181.504 150.518 182.267 150.442 182.945 150.457C183.636 150.469 184.209 150.59 184.663 150.821C185.114 151.039 185.413 151.389 185.562 151.872C185.737 152.44 185.721 152.947 185.515 153.393C185.305 153.828 184.985 154.184 184.555 154.462C184.195 154.665 183.726 154.882 183.15 155.113C182.581 155.327 181.981 155.545 181.348 155.767C180.712 155.976 180.118 156.172 179.567 156.355C178.967 156.553 178.483 156.761 178.114 156.98C177.757 157.196 177.496 157.442 177.33 157.718C177.16 157.981 177.077 158.291 177.081 158.647C177.084 159.002 177.155 159.404 177.293 159.85C177.382 160.14 177.498 160.368 177.642 160.536C177.798 160.699 178.028 160.78 178.332 160.779C178.636 160.778 179.065 160.692 179.621 160.521C179.898 160.436 180.182 160.349 180.472 160.259C180.758 160.158 181.044 160.057 181.33 159.955C181.624 159.838 181.908 159.731 182.182 159.634C182.468 159.532 182.738 159.443 182.992 159.365C183.873 159.093 184.586 159.092 185.131 159.36C185.673 159.616 186.051 160.094 186.267 160.795C186.594 161.857 186.537 162.681 186.096 163.266C185.667 163.847 185.054 164.261 184.257 164.506C183.956 164.599 183.654 164.692 183.352 164.785C183.05 164.878 182.754 164.969 182.465 165.058C182.171 165.135 181.892 165.215 181.626 165.296C181.36 165.378 181.125 165.451 180.92 165.514C180.304 165.703 179.844 165.885 179.541 166.057C179.237 166.23 179.051 166.42 178.982 166.626C178.922 166.816 178.936 167.056 179.025 167.346C179.141 167.72 179.277 168.055 179.434 168.35C179.587 168.634 179.77 168.862 179.981 169.034C180.193 169.207 180.444 169.335 180.734 169.417C181.032 169.484 181.373 169.498 181.758 169.459C182.154 169.416 182.618 169.313 183.149 169.149C183.705 168.978 184.27 168.798 184.846 168.607C185.418 168.405 185.956 168.219 186.459 168.051C186.959 167.871 187.371 167.731 187.697 167.63C188.506 167.381 189.171 167.394 189.692 167.67C190.213 167.946 190.587 168.452 190.814 169.188C191.052 169.961 190.945 170.688 190.494 171.369C190.055 172.046 189.393 172.666 188.509 173.229C187.637 173.788 186.661 174.287 185.58 174.725C184.499 175.164 183.457 175.537 182.455 175.846Z" fill="#BAE8E8"/>
<path d="M234.662 158.037C233.237 158.476 231.871 158.612 230.565 158.446C229.258 158.28 228.063 157.769 226.98 156.913C225.905 156.041 224.988 154.777 224.227 153.121C224.063 152.762 223.904 152.395 223.749 152.02C223.602 151.629 223.451 151.226 223.297 150.81C223.151 150.38 223.005 149.949 222.86 149.518C222.71 149.075 222.561 148.612 222.412 148.129C221.736 145.932 221.418 144.041 221.458 142.455C221.507 140.854 221.876 139.498 222.565 138.387C223.262 137.261 224.259 136.313 225.555 135.543C226.848 134.762 228.4 134.093 230.211 133.535C231.128 133.253 232.012 133.033 232.863 132.877C233.71 132.709 234.473 132.633 235.152 132.648C235.843 132.66 236.415 132.781 236.87 133.012C237.32 133.23 237.62 133.58 237.768 134.063C237.943 134.631 237.927 135.138 237.721 135.585C237.511 136.019 237.191 136.375 236.762 136.653C236.401 136.857 235.933 137.074 235.356 137.304C234.788 137.519 234.187 137.737 233.555 137.958C232.919 138.167 232.325 138.363 231.773 138.546C231.173 138.744 230.689 138.952 230.32 139.172C229.964 139.387 229.702 139.633 229.536 139.909C229.366 140.172 229.283 140.482 229.287 140.838C229.291 141.194 229.361 141.595 229.499 142.041C229.588 142.331 229.705 142.56 229.849 142.727C230.005 142.89 230.235 142.971 230.538 142.97C230.842 142.969 231.272 142.883 231.827 142.713C232.105 142.627 232.388 142.54 232.678 142.45C232.964 142.349 233.25 142.248 233.536 142.147C233.831 142.03 234.115 141.922 234.389 141.825C234.675 141.723 234.944 141.634 235.198 141.556C236.079 141.284 236.792 141.283 237.338 141.551C237.879 141.807 238.258 142.286 238.473 142.986C238.8 144.048 238.743 144.872 238.302 145.457C237.873 146.039 237.261 146.452 236.464 146.697C236.162 146.79 235.86 146.883 235.558 146.976C235.256 147.069 234.961 147.16 234.671 147.249C234.378 147.326 234.098 147.406 233.832 147.488C233.567 147.569 233.331 147.642 233.126 147.705C232.51 147.895 232.051 148.076 231.747 148.249C231.443 148.421 231.257 148.611 231.189 148.817C231.128 149.007 231.143 149.247 231.232 149.537C231.347 149.911 231.483 150.246 231.64 150.542C231.794 150.825 231.976 151.053 232.188 151.225C232.4 151.398 232.65 151.526 232.94 151.608C233.238 151.675 233.58 151.689 233.964 151.65C234.361 151.607 234.824 151.504 235.356 151.341C235.911 151.17 236.477 150.989 237.052 150.798C237.624 150.596 238.162 150.41 238.665 150.242C239.165 150.062 239.578 149.922 239.904 149.821C240.713 149.572 241.378 149.586 241.899 149.861C242.42 150.137 242.794 150.643 243.02 151.38C243.258 152.152 243.152 152.879 242.7 153.56C242.261 154.237 241.6 154.857 240.716 155.42C239.844 155.979 238.867 156.478 237.786 156.917C236.705 157.355 235.664 157.729 234.662 158.037Z" fill="#BAE8E8"/>
<path d="M213.143 182.842C211.421 183.429 209.744 183.734 208.11 183.758C206.477 183.781 204.959 183.518 203.557 182.969C202.151 182.407 200.917 181.567 199.854 180.448C198.804 179.325 197.989 177.915 197.41 176.217C196.847 174.567 196.584 172.995 196.622 171.501C196.667 169.99 196.967 168.58 197.521 167.27C198.075 165.96 198.828 164.762 199.779 163.677C200.742 162.588 201.866 161.637 203.15 160.825C204.431 160.001 205.818 159.335 207.313 158.825C209.142 158.201 210.937 157.869 212.698 157.829C214.472 157.784 216.133 158.038 217.683 158.591C219.229 159.131 220.575 159.966 221.721 161.097C222.88 162.223 223.752 163.647 224.34 165.369C224.988 167.27 225.159 169.12 224.852 170.92C224.541 172.708 223.843 174.38 222.76 175.938C221.684 177.479 220.319 178.839 218.666 180.017C217.016 181.207 215.175 182.148 213.143 182.842ZM211.884 174.162C213.187 173.718 214.156 173.154 214.79 172.47C215.432 171.771 215.817 171.019 215.943 170.215C216.069 169.411 216.006 168.639 215.753 167.898C215.512 167.192 215.169 166.595 214.722 166.107C214.271 165.607 213.755 165.229 213.174 164.974C212.589 164.706 211.959 164.561 211.283 164.537C210.62 164.51 209.948 164.613 209.266 164.845C208.621 165.065 208.034 165.379 207.505 165.786C206.973 166.181 206.536 166.644 206.197 167.173C205.853 167.691 205.633 168.26 205.537 168.88C205.438 169.488 205.496 170.108 205.712 170.742C205.949 171.436 206.277 172.044 206.696 172.569C207.127 173.089 207.617 173.509 208.167 173.829C208.724 174.132 209.322 174.322 209.962 174.397C210.598 174.461 211.238 174.382 211.884 174.162Z" fill="#BAE8E8"/>
<path d="M115.096 45.9538C120.234 22.4983 142.683 20.9442 133.34 12.0737C123.997 3.20319 149.111 2.48311 156.588 6.23217C162.514 9.20336 171.402 15.057 171.402 15.057C171.402 15.057 185.54 25.1045 190.675 45.9538C195.81 66.8031 171.122 77.8901 151.583 77.2277C132.827 76.5919 109.958 69.4092 115.096 45.9538Z" fill="#272343" stroke="#272343" stroke-width="5.18143"/>
<path d="M132.418 29.4937C131.398 29.8509 130.368 30.1424 129.327 30.3685C128.302 30.6017 127.333 30.7272 126.421 30.7447C125.509 30.7622 124.726 30.6276 124.072 30.3408C123.429 30.0501 122.988 29.563 122.748 28.8794C122.505 28.1846 122.474 27.5917 122.654 27.1008C122.83 26.5987 123.156 26.1826 123.632 25.8525C124.104 25.5111 124.648 25.2325 125.264 25.0167C125.41 24.9657 125.635 24.9247 125.938 24.8939C126.253 24.8591 126.609 24.8161 127.007 24.7651C127.404 24.714 127.804 24.6178 128.208 24.4765C128.79 24.2725 129.298 24.0695 129.731 23.8677C130.163 23.6659 130.517 23.454 130.791 23.2321C131.062 22.9989 131.236 22.7428 131.315 22.4638C131.404 22.1808 131.388 21.8656 131.267 21.5182C131.165 21.2268 130.985 21.0005 130.727 20.8391C130.48 20.6739 130.167 20.5509 129.786 20.4703C129.402 20.3785 128.967 20.3231 128.483 20.3041C128.009 20.2812 127.487 20.2628 126.916 20.2489C126.06 20.2468 125.227 20.1862 124.418 20.067C123.62 19.9438 122.883 19.7428 122.206 19.4639C121.53 19.1849 120.938 18.8071 120.432 18.3303C119.932 17.8384 119.557 17.2339 119.306 16.5167C118.992 15.6202 118.934 14.7536 119.131 13.9169C119.34 13.0764 119.736 12.2837 120.318 11.5389C120.9 10.7941 121.611 10.1111 122.45 9.49011C123.285 8.85789 124.178 8.2999 125.128 7.81614C126.079 7.33238 127.013 6.9296 127.932 6.60779C128.795 6.30561 129.636 6.06759 130.456 5.89373C131.287 5.71595 132.063 5.63288 132.784 5.64452C133.502 5.64495 134.11 5.76531 134.609 6.00561C135.105 6.23471 135.444 6.61261 135.629 7.1393C135.841 7.74445 135.868 8.28854 135.71 8.7716C135.559 9.23952 135.286 9.64358 134.889 9.98379C134.492 10.324 134.036 10.5844 133.521 10.7649C133.285 10.8473 133.031 10.8925 132.757 10.9003C132.483 10.9082 132.175 10.9279 131.834 10.9594C131.504 10.9869 131.109 11.0811 130.65 11.242C130.336 11.3519 130.035 11.4822 129.749 11.633C129.473 11.7799 129.235 11.9449 129.035 12.1282C128.835 12.3115 128.696 12.5239 128.617 12.7654C128.545 12.9918 128.558 13.2451 128.656 13.5252C128.762 13.8278 128.948 14.0709 129.214 14.2547C129.479 14.4384 129.804 14.5762 130.189 14.6681C130.573 14.7599 131.012 14.8265 131.504 14.8679C132.004 14.8941 132.547 14.9178 133.133 14.939C133.933 14.9607 134.749 15.046 135.582 15.1949C136.425 15.3399 137.225 15.5757 137.981 15.9022C138.733 16.2176 139.394 16.6526 139.966 17.2072C140.549 17.7579 140.986 18.4479 141.276 19.2772C141.672 20.409 141.709 21.4844 141.387 22.5031C141.064 23.5219 140.47 24.4659 139.605 25.3352C138.739 26.2045 137.686 26.9883 136.446 27.6867C135.206 28.3851 133.864 28.9875 132.418 29.4937Z" fill="#BAE8E8"/>
<path d="M129.051 53.8672C127.931 53.8335 126.926 53.5989 126.036 53.1635C125.146 52.7281 124.42 52.0743 123.857 51.2021C123.304 50.3207 122.957 49.1984 122.818 47.8352C122.789 47.5397 122.765 47.2396 122.745 46.935C122.736 46.6211 122.726 46.2977 122.717 45.9648C122.718 45.6227 122.719 45.2806 122.72 44.9385C122.721 44.5869 122.727 44.2212 122.738 43.8415C122.79 42.1134 123.023 40.6902 123.437 39.5718C123.861 38.4441 124.452 37.5686 125.212 36.9453C125.982 36.3127 126.922 35.8801 128.031 35.6473C129.141 35.4051 130.408 35.3054 131.832 35.3483C132.554 35.37 133.236 35.4285 133.879 35.5239C134.523 35.6098 135.085 35.7407 135.564 35.9167C136.053 36.0929 136.431 36.3181 136.698 36.5923C136.966 36.8569 137.094 37.1791 137.083 37.5589C137.069 38.0052 136.935 38.3622 136.68 38.6302C136.425 38.8886 136.111 39.0644 135.737 39.1577C135.431 39.2151 135.045 39.2557 134.579 39.2797C134.122 39.2945 133.642 39.3038 133.138 39.3076C132.635 39.302 132.165 39.2974 131.728 39.2937C131.253 39.2889 130.857 39.3198 130.542 39.3863C130.235 39.4532 129.99 39.5646 129.805 39.7205C129.62 39.867 129.485 40.0673 129.402 40.3214C129.318 40.5754 129.271 40.8781 129.26 41.2294C129.253 41.4573 129.281 41.6482 129.343 41.8021C129.414 41.9563 129.558 42.0699 129.774 42.143C129.991 42.216 130.317 42.2591 130.754 42.2722C130.973 42.2788 131.196 42.2855 131.424 42.2923C131.652 42.2897 131.88 42.2871 132.108 42.2844C132.346 42.2726 132.574 42.2652 132.793 42.2623C133.021 42.2596 133.235 42.2613 133.434 42.2673C134.127 42.2881 134.635 42.4602 134.958 42.7836C135.281 43.0974 135.435 43.5296 135.418 44.0803C135.393 44.9158 135.152 45.4883 134.696 45.7977C134.25 46.1074 133.713 46.2528 133.087 46.2339C132.849 46.2268 132.612 46.2197 132.375 46.2125C132.137 46.2054 131.905 46.1984 131.677 46.1915C131.449 46.1752 131.231 46.1639 131.022 46.1576C130.813 46.1513 130.628 46.1457 130.467 46.1409C129.982 46.1263 129.611 46.1437 129.353 46.1929C129.095 46.2422 128.917 46.3318 128.818 46.4619C128.729 46.5828 128.681 46.7571 128.674 46.985C128.665 47.2793 128.68 47.5506 128.721 47.7989C128.761 48.0377 128.835 48.2443 128.944 48.4186C129.053 48.5929 129.2 48.7447 129.387 48.8738C129.583 48.9938 129.822 49.0865 130.105 49.152C130.398 49.2179 130.753 49.257 131.171 49.2696C131.608 49.2828 132.054 49.2914 132.51 49.2956C132.966 49.2904 133.394 49.289 133.793 49.2915C134.192 49.2845 134.52 49.2848 134.777 49.2925C135.413 49.3117 135.883 49.4826 136.187 49.8054C136.491 50.1281 136.634 50.5791 136.616 51.1583C136.598 51.7659 136.346 52.2572 135.859 52.6322C135.382 53.0075 134.761 53.2882 133.995 53.4742C133.239 53.6605 132.423 53.7785 131.547 53.8282C130.671 53.8779 129.839 53.8909 129.051 53.8672Z" fill="#BAE8E8"/>
<path d="M170.531 53.8672C169.41 53.8335 168.405 53.5989 167.516 53.1635C166.626 52.7281 165.899 52.0743 165.337 51.2021C164.783 50.3207 164.437 49.1984 164.297 47.8352C164.268 47.5397 164.244 47.2396 164.225 46.935C164.215 46.6211 164.206 46.2977 164.197 45.9648C164.198 45.6227 164.198 45.2806 164.199 44.9385C164.2 44.5869 164.207 44.2212 164.218 43.8415C164.27 42.1134 164.503 40.6902 164.917 39.5718C165.34 38.4441 165.932 37.5686 166.692 36.9453C167.462 36.3127 168.401 35.8801 169.511 35.6473C170.62 35.4051 171.887 35.3054 173.311 35.3483C174.033 35.37 174.716 35.4285 175.359 35.5239C176.003 35.6098 176.564 35.7407 177.043 35.9167C177.532 36.0929 177.91 36.3181 178.178 36.5923C178.445 36.8569 178.573 37.1791 178.562 37.5589C178.549 38.0052 178.414 38.3622 178.159 38.6302C177.904 38.8886 177.59 39.0644 177.217 39.1577C176.911 39.2151 176.525 39.2557 176.058 39.2797C175.602 39.2945 175.122 39.3038 174.618 39.3076C174.114 39.302 173.644 39.2974 173.207 39.2937C172.732 39.2889 172.337 39.3198 172.021 39.3863C171.715 39.4532 171.469 39.5646 171.284 39.7205C171.099 39.867 170.965 40.0673 170.881 40.3214C170.797 40.5754 170.75 40.8781 170.74 41.2294C170.733 41.4573 170.76 41.6482 170.822 41.8021C170.894 41.9563 171.038 42.0699 171.254 42.143C171.47 42.216 171.797 42.2591 172.234 42.2722C172.452 42.2788 172.675 42.2855 172.903 42.2923C173.131 42.2897 173.359 42.2871 173.587 42.2844C173.825 42.2726 174.054 42.2652 174.272 42.2623C174.501 42.2596 174.714 42.2613 174.914 42.2673C175.607 42.2881 176.115 42.4602 176.438 42.7836C176.761 43.0974 176.914 43.5296 176.898 44.0803C176.872 44.9158 176.632 45.4883 176.176 45.7977C175.729 46.1074 175.193 46.2528 174.566 46.2339C174.329 46.2268 174.092 46.2197 173.854 46.2125C173.617 46.2054 173.384 46.1984 173.156 46.1915C172.929 46.1752 172.711 46.1639 172.502 46.1576C172.293 46.1513 172.108 46.1457 171.946 46.1409C171.462 46.1263 171.091 46.1437 170.833 46.1929C170.575 46.2422 170.396 46.3318 170.297 46.4619C170.208 46.5828 170.16 46.7571 170.153 46.985C170.144 47.2793 170.16 47.5506 170.2 47.7989C170.24 48.0377 170.315 48.2443 170.424 48.4186C170.532 48.5929 170.68 48.7447 170.866 48.8738C171.062 48.9938 171.302 49.0865 171.585 49.152C171.877 49.2179 172.233 49.257 172.65 49.2696C173.087 49.2828 173.533 49.2914 173.99 49.2956C174.446 49.2904 174.874 49.289 175.273 49.2915C175.672 49.2845 176 49.2848 176.256 49.2925C176.892 49.3117 177.362 49.4826 177.666 49.8054C177.97 50.1281 178.113 50.5791 178.096 51.1583C178.078 51.7659 177.825 52.2572 177.339 52.6322C176.862 53.0075 176.24 53.2882 175.475 53.4742C174.718 53.6605 173.902 53.7785 173.026 53.8282C172.151 53.8779 171.319 53.8909 170.531 53.8672Z" fill="#BAE8E8"/>
<path d="M149.184 66.296C147.816 66.296 146.548 66.106 145.38 65.726C144.212 65.3461 143.195 64.7904 142.331 64.059C141.466 63.3181 140.792 62.4204 140.308 61.366C139.833 60.3117 139.595 59.11 139.595 57.7612C139.595 56.4503 139.79 55.2677 140.179 54.2133C140.578 53.1495 141.134 52.2186 141.846 51.4207C142.559 50.6227 143.385 49.9531 144.326 49.4116C145.276 48.8702 146.306 48.4665 147.418 48.2005C148.529 47.9251 149.678 47.7873 150.866 47.7873C152.319 47.7873 153.677 47.9868 154.941 48.3857C156.214 48.7847 157.334 49.3689 158.303 50.1383C159.272 50.8982 160.027 51.8196 160.569 52.9025C161.12 53.9854 161.395 55.2107 161.395 56.5786C161.395 58.0889 161.067 59.4472 160.412 60.6536C159.757 61.8505 158.854 62.8716 157.705 63.717C156.565 64.5529 155.264 65.1893 153.801 65.6263C152.338 66.0727 150.799 66.296 149.184 66.296ZM150.395 59.813C151.431 59.813 152.257 59.6467 152.875 59.3143C153.502 58.9723 153.958 58.5306 154.242 57.9892C154.527 57.4477 154.67 56.8825 154.67 56.2936C154.67 55.7332 154.57 55.225 154.371 54.769C154.171 54.3036 153.896 53.9094 153.544 53.5864C153.193 53.2539 152.78 52.9975 152.305 52.817C151.839 52.6365 151.336 52.5463 150.794 52.5463C150.281 52.5463 149.787 52.627 149.313 52.7885C148.838 52.9405 148.415 53.1637 148.044 53.4582C147.674 53.7431 147.38 54.0946 147.161 54.5126C146.943 54.921 146.833 55.377 146.833 55.8804C146.833 56.4313 146.919 56.9443 147.09 57.4192C147.27 57.8942 147.517 58.3121 147.831 58.6731C148.154 59.0245 148.534 59.3048 148.971 59.5137C149.408 59.7132 149.882 59.813 150.395 59.813Z" fill="#BAE8E8"/>
</svg>
