<svg width="26" height="8" viewBox="0 0 26 8" fill="none" xmlns="http://www.w3.org/2000/svg">
<path d="M0.814141 0.657895H5.2794V1.82211H2.15519V3.04526H5.02151V4.20947H2.15519V5.49895H5.34572V6.66316H0.814141V0.657895Z" fill="#00B8B8"/>
<path d="M6.81414 0.657895H11.2794V1.82211H8.15519V3.04526H11.0215V4.20947H8.15519V5.49895H11.3457V6.66316H6.81414V0.657895Z" fill="#00B8B8"/>
<path d="M15.9995 6.81053C15.3854 6.81053 14.8303 6.67298 14.3342 6.39789C13.843 6.12772 13.4573 5.75439 13.1773 5.27789C12.8973 4.79649 12.7573 4.25614 12.7573 3.65684C12.7573 3.05754 12.8973 2.51965 13.1773 2.04316C13.4573 1.56175 13.843 1.18596 14.3342 0.915789C14.8303 0.640701 15.3854 0.503157 15.9995 0.503157C16.6135 0.503157 17.1661 0.640701 17.6573 0.915789C18.1535 1.18596 18.5416 1.56175 18.8216 2.04316C19.1016 2.51965 19.2416 3.05754 19.2416 3.65684C19.2416 4.25614 19.1016 4.79649 18.8216 5.27789C18.5416 5.75439 18.1535 6.12772 17.6573 6.39789C17.1661 6.67298 16.6135 6.81053 15.9995 6.81053ZM15.9995 5.60211C16.358 5.60211 16.6823 5.5186 16.9721 5.35158C17.2619 5.18456 17.4879 4.95368 17.65 4.65895C17.817 4.3593 17.9005 4.02526 17.9005 3.65684C17.9005 3.28351 17.817 2.94947 17.65 2.65474C17.4879 2.36 17.2619 2.12912 16.9721 1.9621C16.6823 1.79509 16.358 1.71158 15.9995 1.71158C15.6409 1.71158 15.3166 1.79509 15.0268 1.9621C14.737 2.12912 14.5086 2.36 14.3416 2.65474C14.1795 2.94947 14.0984 3.28351 14.0984 3.65684C14.0984 4.02526 14.1795 4.3593 14.3416 4.65895C14.5086 4.95368 14.737 5.18456 15.0268 5.35158C15.3166 5.5186 15.6409 5.60211 15.9995 5.60211Z" fill="#FFC737"/>
<path d="M23.0888 0.510526C23.5309 0.510526 23.9312 0.594035 24.2898 0.761052C24.6484 0.92807 24.9333 1.1614 25.1446 1.46105C25.3607 1.75579 25.4786 2.09228 25.4982 2.47053H24.113C24.0737 2.20526 23.9582 1.99895 23.7667 1.85158C23.5751 1.70421 23.3196 1.63053 23.0003 1.63053C22.6958 1.63053 22.4575 1.68702 22.2856 1.8C22.1137 1.90807 22.0277 2.05544 22.0277 2.2421C22.0277 2.38947 22.0817 2.50982 22.1898 2.60316C22.2979 2.69649 22.4625 2.78 22.6835 2.85368C22.9095 2.92246 23.2361 3.00105 23.6635 3.08947C24.3267 3.22702 24.8007 3.45544 25.0856 3.77474C25.3754 4.08912 25.5203 4.48456 25.5203 4.96105C25.5203 5.33439 25.4123 5.66105 25.1961 5.94105C24.9849 6.22105 24.6951 6.43474 24.3267 6.58211C23.9582 6.73439 23.5481 6.81053 23.0961 6.81053C22.6049 6.81053 22.1628 6.72456 21.7698 6.55263C21.3817 6.38561 21.0723 6.14491 20.8414 5.83053C20.6154 5.51614 20.4926 5.14772 20.473 4.72526H21.8509C21.8902 5.01509 22.0277 5.24842 22.2635 5.42526C22.5042 5.59719 22.8137 5.68316 23.1919 5.68316C23.467 5.68316 23.693 5.62175 23.8698 5.49895C24.0516 5.37614 24.1425 5.21649 24.1425 5.02C24.1425 4.86281 24.0933 4.73263 23.9951 4.62947C23.9017 4.52632 23.7495 4.43789 23.5382 4.36421C23.3319 4.29053 23.0421 4.2193 22.6688 4.15053C21.9958 4.02281 21.4923 3.80912 21.1582 3.50947C20.8242 3.20982 20.6572 2.78737 20.6572 2.2421C20.6572 1.88842 20.7628 1.5814 20.974 1.32105C21.1902 1.0607 21.4825 0.861754 21.8509 0.72421C22.2193 0.581754 22.6319 0.510526 23.0888 0.510526Z" fill="#00B8B8"/>
</svg>
