<svg width="81" height="37" viewBox="0 0 81 37" fill="none" xmlns="http://www.w3.org/2000/svg">
<path d="M1.87602 7.81084H17.0797V11.7748H6.44213V15.9395H16.2016V19.9035H6.44213V24.294H17.3054V28.258H1.87602V7.81084Z" fill="#00B8B8"/>
<path d="M20.5132 7.81084H35.7168V11.7748H25.0793V15.9395H34.8387V19.9035H25.0793V24.294H35.9426V28.258H20.5132V7.81084Z" fill="#00B8B8"/>
<path d="M49.4583 28.7597C47.3676 28.7597 45.4776 28.2914 43.7883 27.3548C42.1157 26.4349 40.8028 25.1637 39.8494 23.5413C38.8961 21.9022 38.4194 20.0624 38.4194 18.0219C38.4194 15.9813 38.8961 14.1499 39.8494 12.5275C40.8028 10.8884 42.1157 9.60885 43.7883 8.68894C45.4776 7.7523 47.3676 7.28398 49.4583 7.28398C51.549 7.28398 53.4307 7.7523 55.1032 8.68894C56.7925 9.60885 58.1138 10.8884 59.0672 12.5275C60.0206 14.1499 60.4973 15.9813 60.4973 18.0219C60.4973 20.0624 60.0206 21.9022 59.0672 23.5413C58.1138 25.1637 56.7925 26.4349 55.1032 27.3548C53.4307 28.2914 51.549 28.7597 49.4583 28.7597ZM49.4583 24.6452C50.6793 24.6452 51.7832 24.3609 52.77 23.7922C53.7568 23.2235 54.5262 22.4374 55.0781 21.4339C55.6468 20.4136 55.9311 19.2763 55.9311 18.0219C55.9311 16.7507 55.6468 15.6134 55.0781 14.6098C54.5262 13.6063 53.7568 12.8202 52.77 12.2515C51.7832 11.6828 50.6793 11.3985 49.4583 11.3985C48.2373 11.3985 47.1334 11.6828 46.1466 12.2515C45.1598 12.8202 44.3821 13.6063 43.8134 14.6098C43.2615 15.6134 42.9855 16.7507 42.9855 18.0219C42.9855 19.2763 43.2615 20.4136 43.8134 21.4339C44.3821 22.4374 45.1598 23.2235 46.1466 23.7922C47.1334 24.3609 48.2373 24.6452 49.4583 24.6452Z" fill="#FFC737"/>
<path d="M71.6252 7.30907C73.1306 7.30907 74.4937 7.59341 75.7147 8.16208C76.9356 8.73075 77.9057 9.52522 78.6249 10.5455C79.3609 11.549 79.7623 12.6947 79.8292 13.9826H75.1125C74.9787 13.0794 74.5857 12.3769 73.9334 11.8752C73.2811 11.3734 72.4114 11.1225 71.3242 11.1225C70.2872 11.1225 69.476 11.3149 68.8906 11.6996C68.3052 12.0675 68.0125 12.5693 68.0125 13.2049C68.0125 13.7066 68.1965 14.1164 68.5645 14.4342C68.9324 14.752 69.4927 15.0363 70.2454 15.2872C71.0148 15.5214 72.127 15.789 73.5822 16.09C75.8401 16.5584 77.4541 17.3361 78.4242 18.4233C79.411 19.4937 79.9045 20.8401 79.9045 22.4625C79.9045 23.7337 79.5365 24.8459 78.8006 25.7993C78.0814 26.7527 77.0945 27.4802 75.8401 27.982C74.5857 28.5005 73.1891 28.7597 71.6503 28.7597C69.9778 28.7597 68.4725 28.467 67.1344 27.8816C65.8131 27.313 64.7594 26.4934 63.9733 25.423C63.2039 24.3525 62.7857 23.0981 62.7188 21.6597H67.4104C67.5442 22.6465 68.0125 23.441 68.8153 24.0431C69.6349 24.6285 70.6886 24.9212 71.9765 24.9212C72.9131 24.9212 73.6825 24.7121 74.2846 24.294C74.9035 23.8758 75.2129 23.3323 75.2129 22.6632C75.2129 22.128 75.0456 21.6848 74.7111 21.3335C74.3933 20.9823 73.8749 20.6812 73.1556 20.4304C72.4532 20.1795 71.4664 19.9369 70.1952 19.7028C67.9038 19.2679 66.1894 18.5404 65.0521 17.5201C63.9147 16.4998 63.346 15.0614 63.346 13.2049C63.346 12.0006 63.7056 10.9553 64.4249 10.0688C65.1608 9.18234 66.156 8.50496 67.4104 8.03664C68.6648 7.55159 70.0698 7.30907 71.6252 7.30907Z" fill="#00B8B8"/>
</svg>
