<svg width="93" height="84" viewBox="0 0 93 84" fill="none" xmlns="http://www.w3.org/2000/svg">
<path d="M5.14723 69.1871H13.6221V71.3967H7.69249V73.7182H13.1326V75.9278H7.69249V78.3752H13.748V80.5848H5.14723V69.1871Z" fill="#00B8B8"/>
<path d="M16.1472 69.1871H24.6221V71.3967H18.6925V73.7182H24.1326V75.9278H18.6925V78.3752H24.748V80.5848H16.1472V69.1871Z" fill="#00B8B8"/>
<path d="M32.7949 80.8645C31.6294 80.8645 30.5759 80.6035 29.6343 80.0814C28.7019 79.5686 27.9701 78.86 27.4386 77.9556C26.9072 77.042 26.6415 76.0164 26.6415 74.879C26.6415 73.7415 26.9072 72.7206 27.4386 71.8163C27.9701 70.9026 28.7019 70.1893 29.6343 69.6766C30.5759 69.1545 31.6294 68.8934 32.7949 68.8934C33.9603 68.8934 35.0091 69.1545 35.9415 69.6766C36.8831 70.1893 37.6197 70.9026 38.1511 71.8163C38.6825 72.7206 38.9482 73.7415 38.9482 74.879C38.9482 76.0164 38.6825 77.042 38.1511 77.9556C37.6197 78.86 36.8831 79.5686 35.9415 80.0814C35.0091 80.6035 33.9603 80.8645 32.7949 80.8645ZM32.7949 78.571C33.4755 78.571 34.0908 78.4125 34.6409 78.0955C35.1909 77.7785 35.6198 77.3403 35.9275 76.7809C36.2445 76.2122 36.403 75.5782 36.403 74.879C36.403 74.1704 36.2445 73.5364 35.9275 72.977C35.6198 72.4176 35.1909 71.9794 34.6409 71.6624C34.0908 71.3454 33.4755 71.1869 32.7949 71.1869C32.1143 71.1869 31.4989 71.3454 30.9488 71.6624C30.3988 71.9794 29.9652 72.4176 29.6482 72.977C29.3406 73.5364 29.1867 74.1704 29.1867 74.879C29.1867 75.5782 29.3406 76.2122 29.6482 76.7809C29.9652 77.3403 30.3988 77.7785 30.9488 78.0955C31.4989 78.4125 32.1143 78.571 32.7949 78.571Z" fill="#FFC737"/>
<path d="M45.4644 68.9074C46.3035 68.9074 47.0633 69.0659 47.7439 69.3829C48.4245 69.6999 48.9653 70.1427 49.3662 70.7114C49.7764 71.2708 50.0002 71.9095 50.0374 72.6274H47.4083C47.3337 72.1239 47.1146 71.7323 46.751 71.4527C46.3874 71.173 45.9026 71.0331 45.2966 71.0331C44.7185 71.0331 44.2663 71.1403 43.94 71.3548C43.6137 71.5599 43.4505 71.8396 43.4505 72.1939C43.4505 72.4736 43.5531 72.702 43.7582 72.8791C43.9633 73.0563 44.2757 73.2148 44.6952 73.3546C45.1241 73.4851 45.7441 73.6343 46.5552 73.8021C47.8138 74.0632 48.7135 74.4967 49.2543 75.1027C49.8044 75.6994 50.0794 76.4499 50.0794 77.3543C50.0794 78.0629 49.8743 78.6829 49.4641 79.2143C49.0632 79.7457 48.5131 80.1513 47.8138 80.431C47.1146 80.72 46.3361 80.8645 45.4784 80.8645C44.546 80.8645 43.7069 80.7014 42.9611 80.375C42.2245 80.0581 41.6372 79.6012 41.199 79.0045C40.7701 78.4078 40.537 77.7086 40.4997 76.9068H43.1149C43.1895 77.4569 43.4505 77.8997 43.8981 78.2353C44.3549 78.5617 44.9423 78.7248 45.6602 78.7248C46.1823 78.7248 46.6111 78.6083 46.9468 78.3752C47.2917 78.1421 47.4642 77.8391 47.4642 77.4662C47.4642 77.1678 47.371 76.9208 47.1845 76.725C47.0074 76.5292 46.7184 76.3614 46.3175 76.2215C45.9259 76.0817 45.3758 75.9465 44.6672 75.816C43.3899 75.5735 42.4343 75.168 41.8003 74.5993C41.1663 74.0305 40.8493 73.2287 40.8493 72.1939C40.8493 71.5226 41.0498 70.9399 41.4507 70.4457C41.8609 69.9516 42.4157 69.574 43.1149 69.313C43.8142 69.0426 44.5973 68.9074 45.4644 68.9074Z" fill="#00B8B8"/>
<path fill-rule="evenodd" clip-rule="evenodd" d="M18.8551 23.9486V15.5396C0 15.5396 0 30.9975 0 30.9975V45.5509C0 45.5509 0 52.339 8.06895 56.5016V51.5956H18.8551V42.8037H8.06895V31.8062C8.06895 26.2431 18.8551 23.9486 18.8551 23.9486Z" fill="black"/>
<path fill-rule="evenodd" clip-rule="evenodd" d="M41.0486 8.19456V0C21.1182 0 21.1182 15.5436 21.1182 15.5436V58.5951C21.9976 58.4681 22.882 58.3217 23.7816 58.1727C25.4697 57.8931 27.2114 57.6046 29.0739 57.4195V15.7397C29.0739 8.27727 41.0486 8.19456 41.0486 8.19456Z" fill="black"/>
<path fill-rule="evenodd" clip-rule="evenodd" d="M43.5383 59.4343L43.5114 0H51.4516C68.098 0 68.6526 15.8408 68.6526 15.8408V81.679C68.5442 81.6574 68.4355 81.6351 68.3264 81.6121C64.908 80.8924 62.4106 79.7976 60.4979 78.4633V15.9664C60.4979 9.42603 52.0062 8.83174 52.0062 8.83174V66.3162C50.2818 63.5873 47.93 61.1031 43.5383 59.4343Z" fill="black"/>
<path fill-rule="evenodd" clip-rule="evenodd" d="M71.8872 18.2607L71.8503 79.1976H78.5315C92.5343 79.1976 93 65.8749 93 65.8749V18.2607H85.271V63.5283C85.271 69.0303 79.9193 69.5296 79.9193 69.5296V18.2607H71.8872Z" fill="black"/>
</svg>
