<svg width="296" height="56" viewBox="0 0 296 56" fill="none" xmlns="http://www.w3.org/2000/svg">
<rect width="296" height="56" rx="28" fill="#4A154B"/>
<path d="M65.0423 31.1662C65.0423 32.5538 63.9088 33.6874 62.5212 33.6874C61.1336 33.6874 60 32.5538 60 31.1662C60 29.7786 61.1336 28.645 62.5212 28.645H65.0423V31.1662Z" fill="#E01E5A"/>
<path d="M66.3127 31.1662C66.3127 29.7786 67.4463 28.645 68.8339 28.645C70.2215 28.645 71.3551 29.7786 71.3551 31.1662V37.4789C71.3551 38.8665 70.2215 40.0001 68.8339 40.0001C67.4463 40.0001 66.3127 38.8665 66.3127 37.4789V31.1662Z" fill="#E01E5A"/>
<path d="M68.8339 21.0423C67.4463 21.0423 66.3127 19.9088 66.3127 18.5212C66.3127 17.1336 67.4463 16 68.8339 16C70.2215 16 71.3551 17.1336 71.3551 18.5212V21.0423H68.8339Z" fill="#36C5F0"/>
<path d="M68.8339 22.3125C70.2215 22.3125 71.355 23.4461 71.355 24.8337C71.355 26.2213 70.2215 27.3548 68.8339 27.3548H62.5212C61.1336 27.3548 60 26.2213 60 24.8337C60 23.4461 61.1336 22.3125 62.5212 22.3125H68.8339Z" fill="#36C5F0"/>
<path d="M78.9577 24.8337C78.9577 23.4461 80.0912 22.3125 81.4788 22.3125C82.8665 22.3125 84 23.4461 84 24.8337C84 26.2213 82.8665 27.3548 81.4788 27.3548H78.9577V24.8337Z" fill="#2EB67D"/>
<path d="M77.6873 24.8339C77.6873 26.2215 76.5538 27.355 75.1661 27.355C73.7785 27.355 72.645 26.2215 72.645 24.8339V18.5212C72.645 17.1336 73.7785 16 75.1661 16C76.5538 16 77.6873 17.1336 77.6873 18.5212V24.8339Z" fill="#2EB67D"/>
<path d="M75.1661 34.9575C76.5538 34.9575 77.6873 36.0911 77.6873 37.4787C77.6873 38.8663 76.5538 39.9999 75.1661 39.9999C73.7785 39.9999 72.645 38.8663 72.645 37.4787V34.9575H75.1661Z" fill="#ECB22E"/>
<path d="M75.1661 33.6874C73.7785 33.6874 72.645 32.5538 72.645 31.1662C72.645 29.7786 73.7785 28.645 75.1661 28.645H81.4788C82.8665 28.645 84 29.7786 84 31.1662C84 32.5538 82.8665 33.6874 81.4788 33.6874H75.1661Z" fill="#ECB22E"/>
<path d="M104.379 24.353C104.307 24.479 104.229 24.572 104.145 24.632C104.067 24.686 103.968 24.713 103.848 24.713C103.722 24.713 103.584 24.668 103.434 24.578C103.29 24.482 103.116 24.377 102.912 24.263C102.708 24.149 102.468 24.047 102.192 23.957C101.922 23.861 101.601 23.813 101.229 23.813C100.893 23.813 100.599 23.855 100.347 23.939C100.095 24.017 99.882 24.128 99.708 24.272C99.54 24.416 99.414 24.59 99.33 24.794C99.246 24.992 99.204 25.211 99.204 25.451C99.204 25.757 99.288 26.012 99.456 26.216C99.63 26.42 99.858 26.594 100.14 26.738C100.422 26.882 100.743 27.011 101.103 27.125C101.463 27.239 101.832 27.362 102.21 27.494C102.588 27.62 102.957 27.77 103.317 27.944C103.677 28.112 103.998 28.328 104.28 28.592C104.562 28.85 104.787 29.168 104.955 29.546C105.129 29.924 105.216 30.383 105.216 30.923C105.216 31.511 105.114 32.063 104.91 32.579C104.712 33.089 104.418 33.536 104.028 33.92C103.644 34.298 103.173 34.598 102.615 34.82C102.057 35.036 101.418 35.144 100.698 35.144C100.284 35.144 99.876 35.102 99.474 35.018C99.072 34.94 98.685 34.826 98.313 34.676C97.947 34.526 97.602 34.346 97.278 34.136C96.954 33.926 96.666 33.692 96.414 33.434L97.125 32.273C97.185 32.189 97.263 32.12 97.359 32.066C97.455 32.006 97.557 31.976 97.665 31.976C97.815 31.976 97.977 32.039 98.151 32.165C98.325 32.285 98.532 32.42 98.772 32.57C99.012 32.72 99.291 32.858 99.609 32.984C99.933 33.104 100.32 33.164 100.77 33.164C101.46 33.164 101.994 33.002 102.372 32.678C102.75 32.348 102.939 31.877 102.939 31.265C102.939 30.923 102.852 30.644 102.678 30.428C102.51 30.212 102.285 30.032 102.003 29.888C101.721 29.738 101.4 29.612 101.04 29.51C100.68 29.408 100.314 29.297 99.942 29.177C99.57 29.057 99.204 28.913 98.844 28.745C98.484 28.577 98.163 28.358 97.881 28.088C97.599 27.818 97.371 27.482 97.197 27.08C97.029 26.672 96.945 26.171 96.945 25.577C96.945 25.103 97.038 24.641 97.224 24.191C97.416 23.741 97.692 23.342 98.052 22.994C98.412 22.646 98.856 22.367 99.384 22.157C99.912 21.947 100.518 21.842 101.202 21.842C101.97 21.842 102.678 21.962 103.326 22.202C103.974 22.442 104.526 22.778 104.982 23.21L104.379 24.353ZM109.246 25.766V35H107.014V25.766H109.246ZM109.552 23.075C109.552 23.267 109.513 23.447 109.435 23.615C109.357 23.783 109.252 23.93 109.12 24.056C108.994 24.182 108.844 24.284 108.67 24.362C108.496 24.434 108.31 24.47 108.112 24.47C107.92 24.47 107.737 24.434 107.563 24.362C107.395 24.284 107.248 24.182 107.122 24.056C106.996 23.93 106.894 23.783 106.816 23.615C106.744 23.447 106.708 23.267 106.708 23.075C106.708 22.877 106.744 22.691 106.816 22.517C106.894 22.343 106.996 22.193 107.122 22.067C107.248 21.941 107.395 21.842 107.563 21.77C107.737 21.692 107.92 21.653 108.112 21.653C108.31 21.653 108.496 21.692 108.67 21.77C108.844 21.842 108.994 21.941 109.12 22.067C109.252 22.193 109.357 22.343 109.435 22.517C109.513 22.691 109.552 22.877 109.552 23.075ZM114.887 30.158C115.163 30.158 115.403 30.122 115.607 30.05C115.811 29.972 115.979 29.867 116.111 29.735C116.249 29.603 116.351 29.444 116.417 29.258C116.489 29.072 116.525 28.868 116.525 28.646C116.525 28.19 116.387 27.83 116.111 27.566C115.841 27.296 115.433 27.161 114.887 27.161C114.341 27.161 113.93 27.296 113.654 27.566C113.384 27.83 113.249 28.19 113.249 28.646C113.249 28.862 113.282 29.063 113.348 29.249C113.42 29.435 113.522 29.597 113.654 29.735C113.792 29.867 113.963 29.972 114.167 30.05C114.377 30.122 114.617 30.158 114.887 30.158ZM117.398 35.414C117.398 35.234 117.344 35.087 117.236 34.973C117.128 34.859 116.981 34.772 116.795 34.712C116.609 34.646 116.39 34.598 116.138 34.568C115.892 34.538 115.628 34.517 115.346 34.505C115.07 34.487 114.782 34.472 114.482 34.46C114.188 34.448 113.9 34.424 113.618 34.388C113.372 34.526 113.171 34.688 113.015 34.874C112.865 35.06 112.79 35.276 112.79 35.522C112.79 35.684 112.829 35.834 112.907 35.972C112.991 36.116 113.12 36.239 113.294 36.341C113.474 36.443 113.705 36.521 113.987 36.575C114.269 36.635 114.614 36.665 115.022 36.665C115.436 36.665 115.793 36.632 116.093 36.566C116.393 36.506 116.639 36.419 116.831 36.305C117.029 36.197 117.173 36.065 117.263 35.909C117.353 35.759 117.398 35.594 117.398 35.414ZM119.612 26.081V26.909C119.612 27.173 119.453 27.335 119.135 27.395L118.307 27.548C118.433 27.866 118.496 28.214 118.496 28.592C118.496 29.048 118.403 29.462 118.217 29.834C118.037 30.2 117.785 30.512 117.461 30.77C117.137 31.028 116.753 31.229 116.309 31.373C115.871 31.511 115.397 31.58 114.887 31.58C114.707 31.58 114.533 31.571 114.365 31.553C114.197 31.535 114.032 31.511 113.87 31.481C113.582 31.655 113.438 31.85 113.438 32.066C113.438 32.252 113.522 32.39 113.69 32.48C113.864 32.564 114.092 32.624 114.374 32.66C114.656 32.696 114.977 32.72 115.337 32.732C115.697 32.738 116.066 32.756 116.444 32.786C116.822 32.816 117.191 32.87 117.551 32.948C117.911 33.02 118.232 33.137 118.514 33.299C118.796 33.461 119.021 33.683 119.189 33.965C119.363 34.241 119.45 34.598 119.45 35.036C119.45 35.444 119.348 35.84 119.144 36.224C118.946 36.608 118.655 36.95 118.271 37.25C117.893 37.55 117.425 37.79 116.867 37.97C116.315 38.156 115.685 38.249 114.977 38.249C114.281 38.249 113.675 38.18 113.159 38.042C112.643 37.91 112.214 37.73 111.872 37.502C111.53 37.28 111.275 37.022 111.107 36.728C110.939 36.434 110.855 36.128 110.855 35.81C110.855 35.378 110.984 35.018 111.242 34.73C111.506 34.436 111.866 34.202 112.322 34.028C112.076 33.902 111.881 33.734 111.737 33.524C111.593 33.314 111.521 33.038 111.521 32.696C111.521 32.558 111.545 32.417 111.593 32.273C111.647 32.123 111.722 31.976 111.818 31.832C111.92 31.688 112.046 31.553 112.196 31.427C112.346 31.295 112.523 31.178 112.727 31.076C112.259 30.824 111.89 30.488 111.62 30.068C111.356 29.648 111.224 29.156 111.224 28.592C111.224 28.136 111.314 27.725 111.494 27.359C111.68 26.987 111.935 26.672 112.259 26.414C112.589 26.15 112.976 25.949 113.42 25.811C113.87 25.673 114.359 25.604 114.887 25.604C115.283 25.604 115.655 25.646 116.003 25.73C116.351 25.808 116.669 25.925 116.957 26.081H119.612ZM123.101 26.9C123.287 26.714 123.482 26.543 123.686 26.387C123.896 26.225 124.115 26.09 124.343 25.982C124.577 25.868 124.826 25.781 125.09 25.721C125.354 25.655 125.642 25.622 125.954 25.622C126.458 25.622 126.905 25.709 127.295 25.883C127.685 26.051 128.009 26.291 128.267 26.603C128.531 26.909 128.729 27.278 128.861 27.71C128.999 28.136 129.068 28.607 129.068 29.123V35H126.845V29.123C126.845 28.559 126.716 28.124 126.458 27.818C126.2 27.506 125.807 27.35 125.279 27.35C124.895 27.35 124.535 27.437 124.199 27.611C123.863 27.785 123.545 28.022 123.245 28.322V35H121.022V25.766H122.381C122.669 25.766 122.858 25.901 122.948 26.171L123.101 26.9ZM137.863 25.766V35H135.631V25.766H137.863ZM138.169 23.075C138.169 23.267 138.13 23.447 138.052 23.615C137.974 23.783 137.869 23.93 137.737 24.056C137.611 24.182 137.461 24.284 137.287 24.362C137.113 24.434 136.927 24.47 136.729 24.47C136.537 24.47 136.354 24.434 136.18 24.362C136.012 24.284 135.865 24.182 135.739 24.056C135.613 23.93 135.511 23.783 135.433 23.615C135.361 23.447 135.325 23.267 135.325 23.075C135.325 22.877 135.361 22.691 135.433 22.517C135.511 22.343 135.613 22.193 135.739 22.067C135.865 21.941 136.012 21.842 136.18 21.77C136.354 21.692 136.537 21.653 136.729 21.653C136.927 21.653 137.113 21.692 137.287 21.77C137.461 21.842 137.611 21.941 137.737 22.067C137.869 22.193 137.974 22.343 138.052 22.517C138.13 22.691 138.169 22.877 138.169 23.075ZM142.208 26.9C142.394 26.714 142.589 26.543 142.793 26.387C143.003 26.225 143.222 26.09 143.45 25.982C143.684 25.868 143.933 25.781 144.197 25.721C144.461 25.655 144.749 25.622 145.061 25.622C145.565 25.622 146.012 25.709 146.402 25.883C146.792 26.051 147.116 26.291 147.374 26.603C147.638 26.909 147.836 27.278 147.968 27.71C148.106 28.136 148.175 28.607 148.175 29.123V35H145.952V29.123C145.952 28.559 145.823 28.124 145.565 27.818C145.307 27.506 144.914 27.35 144.386 27.35C144.002 27.35 143.642 27.437 143.306 27.611C142.97 27.785 142.652 28.022 142.352 28.322V35H140.129V25.766H141.488C141.776 25.766 141.965 25.901 142.055 26.171L142.208 26.9ZM167.482 25.766L164.548 35H162.766C162.562 35 162.421 34.868 162.343 34.604L160.687 29.267C160.633 29.087 160.582 28.91 160.534 28.736C160.492 28.556 160.456 28.376 160.426 28.196C160.39 28.376 160.348 28.559 160.3 28.745C160.258 28.925 160.21 29.105 160.156 29.285L158.473 34.604C158.401 34.868 158.242 35 157.996 35H156.286L153.361 25.766H155.134C155.296 25.766 155.434 25.805 155.548 25.883C155.662 25.961 155.737 26.06 155.773 26.18L157.096 31.112C157.162 31.382 157.219 31.646 157.267 31.904C157.321 32.162 157.366 32.42 157.402 32.678C157.468 32.42 157.537 32.162 157.609 31.904C157.687 31.646 157.768 31.382 157.852 31.112L159.382 26.162C159.418 26.042 159.487 25.943 159.589 25.865C159.697 25.787 159.826 25.748 159.976 25.748H160.957C161.113 25.748 161.245 25.787 161.353 25.865C161.467 25.943 161.542 26.042 161.578 26.162L163.063 31.112C163.141 31.382 163.213 31.649 163.279 31.913C163.351 32.171 163.42 32.429 163.486 32.687C163.564 32.177 163.675 31.652 163.819 31.112L165.178 26.18C165.22 26.06 165.295 25.961 165.403 25.883C165.511 25.805 165.64 25.766 165.79 25.766H167.482ZM171.05 25.766V35H168.818V25.766H171.05ZM171.356 23.075C171.356 23.267 171.317 23.447 171.239 23.615C171.161 23.783 171.056 23.93 170.924 24.056C170.798 24.182 170.648 24.284 170.474 24.362C170.3 24.434 170.114 24.47 169.916 24.47C169.724 24.47 169.541 24.434 169.367 24.362C169.199 24.284 169.052 24.182 168.926 24.056C168.8 23.93 168.698 23.783 168.62 23.615C168.548 23.447 168.512 23.267 168.512 23.075C168.512 22.877 168.548 22.691 168.62 22.517C168.698 22.343 168.8 22.193 168.926 22.067C169.052 21.941 169.199 21.842 169.367 21.77C169.541 21.692 169.724 21.653 169.916 21.653C170.114 21.653 170.3 21.692 170.474 21.77C170.648 21.842 170.798 21.941 170.924 22.067C171.056 22.193 171.161 22.343 171.239 22.517C171.317 22.691 171.356 22.877 171.356 23.075ZM176.395 35.144C175.591 35.144 174.973 34.919 174.541 34.469C174.115 34.013 173.902 33.386 173.902 32.588V27.431H172.957C172.837 27.431 172.735 27.392 172.651 27.314C172.567 27.236 172.525 27.119 172.525 26.963V26.081L174.01 25.838L174.478 23.318C174.508 23.198 174.565 23.105 174.649 23.039C174.733 22.973 174.841 22.94 174.973 22.94H176.125V25.847H178.591V27.431H176.125V32.435C176.125 32.723 176.194 32.948 176.332 33.11C176.476 33.272 176.671 33.353 176.917 33.353C177.055 33.353 177.169 33.338 177.259 33.308C177.355 33.272 177.436 33.236 177.502 33.2C177.574 33.164 177.637 33.131 177.691 33.101C177.745 33.065 177.799 33.047 177.853 33.047C177.919 33.047 177.973 33.065 178.015 33.101C178.057 33.131 178.102 33.179 178.15 33.245L178.816 34.325C178.492 34.595 178.12 34.799 177.7 34.937C177.28 35.075 176.845 35.144 176.395 35.144ZM182.237 26.756C182.597 26.42 182.993 26.147 183.425 25.937C183.857 25.727 184.364 25.622 184.946 25.622C185.45 25.622 185.897 25.709 186.287 25.883C186.677 26.051 187.001 26.291 187.259 26.603C187.523 26.909 187.721 27.278 187.853 27.71C187.991 28.136 188.06 28.607 188.06 29.123V35H185.837V29.123C185.837 28.559 185.708 28.124 185.45 27.818C185.192 27.506 184.799 27.35 184.271 27.35C183.887 27.35 183.527 27.437 183.191 27.611C182.855 27.785 182.537 28.022 182.237 28.322V35H180.014V21.626H182.237V26.756ZM201.832 24.353C201.76 24.479 201.682 24.572 201.598 24.632C201.52 24.686 201.421 24.713 201.301 24.713C201.175 24.713 201.037 24.668 200.887 24.578C200.743 24.482 200.569 24.377 200.365 24.263C200.161 24.149 199.921 24.047 199.645 23.957C199.375 23.861 199.054 23.813 198.682 23.813C198.346 23.813 198.052 23.855 197.8 23.939C197.548 24.017 197.335 24.128 197.161 24.272C196.993 24.416 196.867 24.59 196.783 24.794C196.699 24.992 196.657 25.211 196.657 25.451C196.657 25.757 196.741 26.012 196.909 26.216C197.083 26.42 197.311 26.594 197.593 26.738C197.875 26.882 198.196 27.011 198.556 27.125C198.916 27.239 199.285 27.362 199.663 27.494C200.041 27.62 200.41 27.77 200.77 27.944C201.13 28.112 201.451 28.328 201.733 28.592C202.015 28.85 202.24 29.168 202.408 29.546C202.582 29.924 202.669 30.383 202.669 30.923C202.669 31.511 202.567 32.063 202.363 32.579C202.165 33.089 201.871 33.536 201.481 33.92C201.097 34.298 200.626 34.598 200.068 34.82C199.51 35.036 198.871 35.144 198.151 35.144C197.737 35.144 197.329 35.102 196.927 35.018C196.525 34.94 196.138 34.826 195.766 34.676C195.4 34.526 195.055 34.346 194.731 34.136C194.407 33.926 194.119 33.692 193.867 33.434L194.578 32.273C194.638 32.189 194.716 32.12 194.812 32.066C194.908 32.006 195.01 31.976 195.118 31.976C195.268 31.976 195.43 32.039 195.604 32.165C195.778 32.285 195.985 32.42 196.225 32.57C196.465 32.72 196.744 32.858 197.062 32.984C197.386 33.104 197.773 33.164 198.223 33.164C198.913 33.164 199.447 33.002 199.825 32.678C200.203 32.348 200.392 31.877 200.392 31.265C200.392 30.923 200.305 30.644 200.131 30.428C199.963 30.212 199.738 30.032 199.456 29.888C199.174 29.738 198.853 29.612 198.493 29.51C198.133 29.408 197.767 29.297 197.395 29.177C197.023 29.057 196.657 28.913 196.297 28.745C195.937 28.577 195.616 28.358 195.334 28.088C195.052 27.818 194.824 27.482 194.65 27.08C194.482 26.672 194.398 26.171 194.398 25.577C194.398 25.103 194.491 24.641 194.677 24.191C194.869 23.741 195.145 23.342 195.505 22.994C195.865 22.646 196.309 22.367 196.837 22.157C197.365 21.947 197.971 21.842 198.655 21.842C199.423 21.842 200.131 21.962 200.779 22.202C201.427 22.442 201.979 22.778 202.435 23.21L201.832 24.353ZM206.557 21.626V35H204.334V21.626H206.557ZM213.65 31.058C213.008 31.088 212.468 31.145 212.03 31.229C211.592 31.307 211.241 31.409 210.977 31.535C210.713 31.661 210.524 31.808 210.41 31.976C210.296 32.144 210.239 32.327 210.239 32.525C210.239 32.915 210.353 33.194 210.581 33.362C210.815 33.53 211.118 33.614 211.49 33.614C211.946 33.614 212.339 33.533 212.669 33.371C213.005 33.203 213.332 32.951 213.65 32.615V31.058ZM208.556 27.053C209.618 26.081 210.896 25.595 212.39 25.595C212.93 25.595 213.413 25.685 213.839 25.865C214.265 26.039 214.625 26.285 214.919 26.603C215.213 26.915 215.435 27.29 215.585 27.728C215.741 28.166 215.819 28.646 215.819 29.168V35H214.811C214.601 35 214.439 34.97 214.325 34.91C214.211 34.844 214.121 34.715 214.055 34.523L213.857 33.857C213.623 34.067 213.395 34.253 213.173 34.415C212.951 34.571 212.72 34.703 212.48 34.811C212.24 34.919 211.982 35 211.706 35.054C211.436 35.114 211.136 35.144 210.806 35.144C210.416 35.144 210.056 35.093 209.726 34.991C209.396 34.883 209.111 34.724 208.871 34.514C208.631 34.304 208.445 34.043 208.313 33.731C208.181 33.419 208.115 33.056 208.115 32.642C208.115 32.408 208.154 32.177 208.232 31.949C208.31 31.715 208.436 31.493 208.61 31.283C208.79 31.073 209.021 30.875 209.303 30.689C209.585 30.503 209.93 30.341 210.338 30.203C210.752 30.065 211.232 29.954 211.778 29.87C212.324 29.78 212.948 29.726 213.65 29.708V29.168C213.65 28.55 213.518 28.094 213.254 27.8C212.99 27.5 212.609 27.35 212.111 27.35C211.751 27.35 211.451 27.392 211.211 27.476C210.977 27.56 210.77 27.656 210.59 27.764C210.41 27.866 210.245 27.959 210.095 28.043C209.951 28.127 209.789 28.169 209.609 28.169C209.453 28.169 209.321 28.13 209.213 28.052C209.105 27.968 209.018 27.872 208.952 27.764L208.556 27.053ZM224.527 27.719C224.461 27.803 224.395 27.869 224.329 27.917C224.269 27.965 224.179 27.989 224.059 27.989C223.945 27.989 223.834 27.956 223.726 27.89C223.618 27.818 223.489 27.74 223.339 27.656C223.189 27.566 223.009 27.488 222.799 27.422C222.595 27.35 222.34 27.314 222.034 27.314C221.644 27.314 221.302 27.386 221.008 27.53C220.714 27.668 220.468 27.869 220.27 28.133C220.078 28.397 219.934 28.718 219.838 29.096C219.742 29.468 219.694 29.891 219.694 30.365C219.694 30.857 219.745 31.295 219.847 31.679C219.955 32.063 220.108 32.387 220.306 32.651C220.504 32.909 220.744 33.107 221.026 33.245C221.308 33.377 221.626 33.443 221.98 33.443C222.334 33.443 222.619 33.401 222.835 33.317C223.057 33.227 223.243 33.131 223.393 33.029C223.543 32.921 223.672 32.825 223.78 32.741C223.894 32.651 224.02 32.606 224.158 32.606C224.338 32.606 224.473 32.675 224.563 32.813L225.202 33.623C224.956 33.911 224.689 34.154 224.401 34.352C224.113 34.544 223.813 34.7 223.501 34.82C223.195 34.934 222.877 35.015 222.547 35.063C222.223 35.111 221.899 35.135 221.575 35.135C221.005 35.135 220.468 35.03 219.964 34.82C219.46 34.604 219.019 34.292 218.641 33.884C218.263 33.476 217.963 32.978 217.741 32.39C217.525 31.796 217.417 31.121 217.417 30.365C217.417 29.687 217.513 29.06 217.705 28.484C217.903 27.902 218.191 27.401 218.569 26.981C218.947 26.555 219.415 26.222 219.973 25.982C220.531 25.742 221.173 25.622 221.899 25.622C222.589 25.622 223.192 25.733 223.708 25.955C224.23 26.177 224.698 26.495 225.112 26.909L224.527 27.719ZM228.819 21.626V29.285H229.233C229.383 29.285 229.5 29.267 229.584 29.231C229.674 29.189 229.764 29.108 229.854 28.988L232.149 26.153C232.245 26.027 232.35 25.931 232.464 25.865C232.584 25.799 232.737 25.766 232.923 25.766H234.957L232.086 29.195C231.882 29.465 231.66 29.672 231.42 29.816C231.546 29.906 231.657 30.011 231.753 30.131C231.855 30.251 231.951 30.38 232.041 30.518L235.119 35H233.112C232.938 35 232.788 34.973 232.662 34.919C232.536 34.859 232.431 34.754 232.347 34.604L229.989 31.103C229.905 30.965 229.818 30.875 229.728 30.833C229.638 30.791 229.503 30.77 229.323 30.77H228.819V35H226.596V21.626H228.819Z" fill="white"/>
</svg>
