<svg width="31" height="30" viewBox="0 0 31 30" fill="none" xmlns="http://www.w3.org/2000/svg">
<path d="M20.396 26.016V23.568C20.396 22.2695 19.8802 21.0242 18.962 20.106C18.0438 19.1878 16.7985 18.672 15.5 18.672H8.15601C6.85751 18.672 5.61219 19.1878 4.69401 20.106C3.77584 21.0242 3.26001 22.2695 3.26001 23.568V26.016" stroke="black" stroke-width="1.53" stroke-linecap="round" stroke-linejoin="round"/>
<path d="M11.828 13.776C14.532 13.776 16.724 11.584 16.724 8.88001C16.724 6.17602 14.532 3.98401 11.828 3.98401C9.12402 3.98401 6.93201 6.17602 6.93201 8.88001C6.93201 11.584 9.12402 13.776 11.828 13.776Z" stroke="black" stroke-width="1.53" stroke-linecap="round" stroke-linejoin="round"/>
<path d="M27.74 26.016V23.568C27.7392 22.4832 27.3782 21.4294 26.7135 20.572C26.0489 19.7147 25.1184 19.1023 24.068 18.8311" stroke="black" stroke-width="1.53" stroke-linecap="round" stroke-linejoin="round"/>
<path d="M20.396 4.14313C21.4491 4.41278 22.3826 5.02527 23.0492 5.88404C23.7158 6.74281 24.0776 7.79901 24.0776 8.88613C24.0776 9.97325 23.7158 11.0294 23.0492 11.8882C22.3826 12.747 21.4491 13.3595 20.396 13.6291" stroke="black" stroke-width="1.53" stroke-linecap="round" stroke-linejoin="round"/>
</svg>
