<svg width="27" height="27" viewBox="0 0 27 27" fill="none" xmlns="http://www.w3.org/2000/svg">
<path d="M19.125 3.37504C19.4115 3.03646 19.7659 2.76086 20.1656 2.56581C20.5654 2.37076 21.0016 2.26055 21.4466 2.24219C21.8916 2.22383 22.3355 2.29772 22.7502 2.45917C23.1648 2.62061 23.541 2.86607 23.8548 3.17988C24.1687 3.4937 24.4132 3.86899 24.5729 4.28184C24.7325 4.69469 24.8038 5.13605 24.7822 5.57777C24.7606 6.0195 24.6465 6.4519 24.4473 6.84743C24.248 7.24296 23.968 7.59293 23.625 7.87504L8.4375 23.0625L2.25 24.75L3.9375 18.5625L19.125 3.37504Z" stroke="black" stroke-width="1.40625" stroke-linecap="round" stroke-linejoin="round"/>
<path d="M16.875 5.625L21.375 10.125" stroke="black" stroke-width="1.40625" stroke-linecap="round" stroke-linejoin="round"/>
</svg>
