<svg width="29" height="28" viewBox="0 0 29 28" fill="none" xmlns="http://www.w3.org/2000/svg">
<g clip-path="url(#clip0_936_3730)">
<path d="M22.6289 5.25323H15.6289V1.75323C15.6289 1.52117 15.5367 1.29861 15.3726 1.13452C15.2085 0.970422 14.986 0.878235 14.7539 0.878235C14.5218 0.878235 14.2993 0.970422 14.1352 1.13452C13.9711 1.29861 13.8789 1.52117 13.8789 1.75323V5.25323H6.87891C5.95065 5.25323 5.06041 5.62198 4.40403 6.27836C3.74766 6.93474 3.37891 7.82498 3.37891 8.75323V21.0032C3.37891 21.9315 3.74766 22.8217 4.40403 23.4781C5.06041 24.1345 5.95065 24.5032 6.87891 24.5032H22.6289C23.5572 24.5032 24.4474 24.1345 25.1038 23.4781C25.7602 22.8217 26.1289 21.9315 26.1289 21.0032V8.75323C26.1289 7.82498 25.7602 6.93474 25.1038 6.27836C24.4474 5.62198 23.5572 5.25323 22.6289 5.25323ZM24.3789 21.0032C24.3789 21.4674 24.1945 21.9125 23.8663 22.2407C23.5382 22.5689 23.093 22.7532 22.6289 22.7532H6.87891C6.41478 22.7532 5.96966 22.5689 5.64147 22.2407C5.31328 21.9125 5.12891 21.4674 5.12891 21.0032V8.75323C5.12891 8.28911 5.31328 7.84399 5.64147 7.5158C5.96966 7.18761 6.41478 7.00323 6.87891 7.00323H22.6289C23.093 7.00323 23.5382 7.18761 23.8663 7.5158C24.1945 7.84399 24.3789 8.28911 24.3789 8.75323V21.0032ZM18.6914 14.8782H10.8164C10.0042 14.8782 9.22522 15.2009 8.65089 15.7752C8.07656 16.3496 7.75391 17.1285 7.75391 17.9407C7.75391 18.753 8.07656 19.5319 8.65089 20.1063C9.22522 20.6806 10.0042 21.0032 10.8164 21.0032H18.6914C19.5036 21.0032 20.2826 20.6806 20.8569 20.1063C21.4313 19.5319 21.7539 18.753 21.7539 17.9407C21.7539 17.1285 21.4313 16.3496 20.8569 15.7752C20.2826 15.2009 19.5036 14.8782 18.6914 14.8782ZM15.6289 16.6282V19.2532H13.8789V16.6282H15.6289ZM9.50391 17.9407C9.50391 17.5926 9.64219 17.2588 9.88833 17.0127C10.1345 16.7665 10.4683 16.6282 10.8164 16.6282H12.1289V19.2532H10.8164C10.4683 19.2532 10.1345 19.115 9.88833 18.8688C9.64219 18.6227 9.50391 18.2888 9.50391 17.9407ZM18.6914 19.2532H17.3789V16.6282H18.6914C19.0395 16.6282 19.3733 16.7665 19.6195 17.0127C19.8656 17.2588 20.0039 17.5926 20.0039 17.9407C20.0039 18.2888 19.8656 18.6227 19.6195 18.8688C19.3733 19.115 19.0395 19.2532 18.6914 19.2532ZM8.62891 11.8157C8.62891 11.5561 8.70588 11.3024 8.8501 11.0865C8.99432 10.8707 9.19931 10.7025 9.43913 10.6031C9.67896 10.5038 9.94286 10.4778 10.1975 10.5285C10.4521 10.5791 10.6859 10.7041 10.8695 10.8877C11.053 11.0712 11.178 11.3051 11.2287 11.5597C11.2793 11.8143 11.2533 12.0782 11.154 12.318C11.0547 12.5578 10.8864 12.7628 10.6706 12.907C10.4548 13.0513 10.201 13.1282 9.94141 13.1282C9.59331 13.1282 9.25947 12.99 9.01333 12.7438C8.76719 12.4977 8.62891 12.1638 8.62891 11.8157ZM18.2539 11.8157C18.2539 11.5561 18.3309 11.3024 18.4751 11.0865C18.6193 10.8707 18.8243 10.7025 19.0641 10.6031C19.304 10.5038 19.5679 10.4778 19.8225 10.5285C20.0771 10.5791 20.3109 10.7041 20.4945 10.8877C20.678 11.0712 20.803 11.3051 20.8537 11.5597C20.9043 11.8143 20.8783 12.0782 20.779 12.318C20.6797 12.5578 20.5114 12.7628 20.2956 12.907C20.0798 13.0513 19.826 13.1282 19.5664 13.1282C19.2183 13.1282 18.8845 12.99 18.6383 12.7438C18.3922 12.4977 18.2539 12.1638 18.2539 11.8157Z" fill="black"/>
</g>
<defs>
<clipPath id="clip0_936_3730">
<rect width="28" height="28" fill="white" transform="translate(0.753906 0.00323486)"/>
</clipPath>
</defs>
</svg>
