<svg width="24" height="24" viewBox="0 0 24 24" fill="none" xmlns="http://www.w3.org/2000/svg">
<path d="M5.04235 15.1661C5.04235 16.5538 3.9088 17.6873 2.52117 17.6873C1.13355 17.6873 0 16.5538 0 15.1661C0 13.7785 1.13355 12.645 2.52117 12.645H5.04235V15.1661Z" fill="#E01E5A"/>
<path d="M6.31268 15.1661C6.31268 13.7785 7.44623 12.645 8.83386 12.645C10.2215 12.645 11.355 13.7785 11.355 15.1661V21.4788C11.355 22.8665 10.2215 24 8.83386 24C7.44623 24 6.31268 22.8665 6.31268 21.4788V15.1661Z" fill="#E01E5A"/>
<path d="M8.83386 5.04235C7.44623 5.04235 6.31268 3.9088 6.31268 2.52117C6.31268 1.13355 7.44623 0 8.83386 0C10.2215 0 11.355 1.13355 11.355 2.52117V5.04235H8.83386Z" fill="#36C5F0"/>
<path d="M8.83388 6.31271C10.2215 6.31271 11.355 7.44626 11.355 8.83389C11.355 10.2215 10.2215 11.3551 8.83388 11.3551H2.52117C1.13355 11.3551 0 10.2215 0 8.83389C0 7.44626 1.13355 6.31271 2.52117 6.31271H8.83388Z" fill="#36C5F0"/>
<path d="M18.9576 8.83389C18.9576 7.44626 20.0912 6.31271 21.4788 6.31271C22.8664 6.31271 24 7.44626 24 8.83389C24 10.2215 22.8664 11.3551 21.4788 11.3551H18.9576V8.83389Z" fill="#2EB67D"/>
<path d="M17.6873 8.83388C17.6873 10.2215 16.5538 11.355 15.1661 11.355C13.7785 11.355 12.645 10.2215 12.645 8.83388V2.52117C12.645 1.13355 13.7785 0 15.1661 0C16.5538 0 17.6873 1.13355 17.6873 2.52117V8.83388Z" fill="#2EB67D"/>
<path d="M15.1661 18.9577C16.5538 18.9577 17.6873 20.0912 17.6873 21.4788C17.6873 22.8665 16.5538 24 15.1661 24C13.7785 24 12.645 22.8665 12.645 21.4788V18.9577H15.1661Z" fill="#ECB22E"/>
<path d="M15.1661 17.6873C13.7785 17.6873 12.645 16.5538 12.645 15.1661C12.645 13.7785 13.7785 12.645 15.1661 12.645H21.4788C22.8665 12.645 24 13.7785 24 15.1661C24 16.5538 22.8665 17.6873 21.4788 17.6873H15.1661Z" fill="#ECB22E"/>
</svg>
